<?xml version="1.0" encoding="UTF-8"?>
<svg width="414px" height="65px" viewBox="0 0 414 65" version="1.1" xmlns="http://www.w3.org/2000/svg" xmlns:xlink="http://www.w3.org/1999/xlink">
    <!-- Generator: Sketch 44.1 (41455) - http://www.bohemiancoding.com/sketch -->
    <title>logo</title>
    <desc>Created with Sketch.</desc>
    <defs></defs>
    <g id="Page-1" stroke="none" stroke-width="1" fill="none" fill-rule="evenodd">
        <g id="logo" fill-rule="nonzero" fill="#000000">
            <g id="Group">
                <g id="Shape">
                    <g>
                        <path d="M18,39.8 C18.5,39.1 19,38.4 19.4,37.7 C19.9,36.9 20.4,36.1 20.8,35.3 C21.2,34.5 21.7,33.7 22.1,32.9 C22.3,32.4 22.5,32 22.7,31.5 C23,30.7 23.4,30 23.7,29.2 C24,28.6 24.2,28 24.5,27.4 C24.7,26.8 25,26.3 25.2,25.8 C25.2,25.7 25.3,25.7 25.3,25.6 C25.5,25.1 25.7,24.7 25.9,24.2 C26.1,23.8 26.2,23.3 26.4,22.9 C26.6,22.4 26.7,22 26.9,21.5 C27.2,20.7 27.6,19.8 27.8,19 C27.9,18.6 28.1,18.2 28.2,17.7 C28.5,16.7 28.7,15.7 28.9,14.6 C29.1,13.8 29.2,12.9 29.3,12 C29.4,11.4 29.4,10.7 29.4,10.1 C29.4,9.7 29.5,9.3 29.5,8.8 C29.4,8.5 29.5,8.1 29.5,7.8 C29.5,7.5 29.5,7.3 29.5,7 C29.5,6.7 29.5,6.3 29.4,6 C29.4,5.7 29.3,5.4 29.3,5.1 C29.2,4.7 29.2,4.3 29.1,3.8 C29,3.4 28.9,2.9 28.7,2.5 C28.6,2.1 28,1.9 27.7,2.2 C27.5,2.4 27.2,2.6 27,2.8 C26.6,3.2 26.3,3.6 26,4 C25.6,4.7 25.1,5.4 24.8,6.1 C24.7,6.3 24.6,6.6 24.4,6.8 C24.1,7 24,7.2 23.9,7.4 C23.8,7.6 23.7,7.8 23.6,8 C23.4,8.5 23.2,8.9 23,9.4 C22.8,9.9 22.5,10.5 22.3,11.1 C22.2,11.4 22.1,11.8 21.9,12.2 C21.8,12.4 21.8,12.6 21.7,12.7 C21.6,13 21.4,13.3 21.3,13.6 C21.1,14.2 20.9,14.7 20.7,15.3 C20.6,15.8 20.4,16.2 20.3,16.7 C20.2,17 20.1,17.3 20,17.5 C20,17.6 20,17.8 20,18 C20,18 20,18.1 20,18.1 C19.8,18.4 19.8,18.9 19.8,19.2 C19.7,19.8 19.6,20.4 19.5,21 C19.5,21.3 19.4,21.5 19.4,21.8 C19.4,22.1 19.4,22.3 19.3,22.6 C19.3,22.9 19.2,23.3 19.2,23.6 C19.2,23.8 19.1,23.9 19.1,24.1 C19.1,24.3 19.1,24.5 19.1,24.6 C19.1,24.8 19,25 19.1,25.3 C19.1,25.3 19.1,25.4 19.1,25.4 C19,25.6 19,25.9 18.9,26.1 C18.9,26.4 18.9,26.8 18.9,27.1 C18.8,27.6 18.8,28.1 18.8,28.6 C18.8,29.3 18.6,30 18.6,30.6 C18.6,31.1 18.6,31.5 18.5,32 C18.4,32.6 18.4,33.1 18.4,33.7 C18.3,34.4 18.2,35.1 18.2,35.8 C18.2,36 18.1,36.2 18.1,36.4 C18.1,36.5 18.1,36.5 18.1,36.6 C18.1,36.9 18.1,37.2 18.1,37.4 C18.1,37.7 18.1,38 18,38.3 C18,38.4 18,38.6 18,38.7 C18,39 18,39.3 17.9,39.7 C17.9,39.8 18,39.8 18,39.8 Z"></path>
                        <path d="M36.6,36.9 C36.5,36.4 36.4,36 36.2,35.6 C36.2,35.5 36.1,35.4 36,35.4 C35.9,35.4 35.8,35.5 35.8,35.5 C35.7,35.6 35.6,35.8 35.5,36 C35.2,36.7 34.9,37.4 34.6,38.1 C34.5,38.4 34.4,38.6 34.3,38.9 C34.3,39.1 34.3,39.2 34.2,39.4 C34.1,39.9 33.9,40.3 33.8,40.8 C33.6,41.5 33.4,42.1 33.2,42.8 C33.1,43 33.1,43.2 33.1,43.3 C33,43.7 32.9,44.1 32.9,44.5 C32.8,44.9 32.8,45.2 32.8,45.6 C32.8,46.3 32.8,47.1 32.8,47.8 C32.8,48.1 32.8,48.3 32.8,48.6 C32.8,48.7 32.9,48.8 32.9,48.8 C32.9,49.2 33.1,49.5 33.2,49.8 C33.2,49.9 33.3,50 33.4,50.1 C33.6,50 34,49.6 34.1,49.4 C34.4,48.9 34.6,48.3 34.8,47.8 C34.9,47.6 35,47.4 35,47.2 C35.1,46.9 35.2,46.7 35.3,46.4 L36.1,43.7 C36.2,43.1 36.3,42.6 36.4,42 C36.6,41.4 36.7,40.7 36.7,40.1 C36.7,39.6 36.7,39 36.6,38.5 C36.8,37.9 36.7,37.4 36.6,36.9 Z"></path>
                        <path d="M77.4,50.3 C77.2,49.7 76.8,49.4 76.2,49.2 C76,49.2 75.9,49.2 75.7,49.1 C75.4,49 75.1,49 74.8,49.1 C74.4,49.2 74,49.2 73.7,49.3 C73.5,49.4 73.2,49.4 73,49.5 C72.8,49.5 72.5,49.6 72.3,49.6 C72.1,49.6 71.9,49.6 71.8,49.7 C71.7,49.7 71.6,49.8 71.6,49.8 C71.2,49.8 70.8,49.9 70.4,50 C70.3,50 70.2,50 70.1,50 C69.7,50.1 69.3,50.3 68.9,50.2 C68.8,50.2 68.8,50.2 68.7,50.2 C68.1,50.3 67.5,50.5 66.8,50.5 C66.7,50.5 66.6,50.5 66.5,50.5 C66,50.6 65.5,50.7 65.1,50.7 C64.8,50.7 64.4,50.7 64.1,50.7 C63.4,50.8 62.8,50.8 62.1,50.8 C61.5,50.8 61,50.8 60.4,50.7 C60.3,50.7 60.1,50.7 60,50.7 C59.6,50.6 59.2,50.5 58.7,50.5 C58.5,50.5 58.3,50.4 58.2,50.3 C57.3,50.1 56.4,49.7 55.8,49 C55.7,48.9 55.5,48.7 55.4,48.5 C55,48.1 54.8,47.6 54.6,47.2 C54.4,46.7 54.3,46.2 54.1,45.7 C54.1,45.5 54,45.4 54,45.2 C53.9,44.8 53.9,44.4 53.8,44.1 C53.8,44 53.9,43.9 54,43.9 C54.2,43.9 54.4,43.9 54.6,43.9 C54.8,43.9 55.1,43.8 55.3,43.7 C55.5,43.6 55.7,43.4 55.9,43.3 C56.7,43 57.3,42.5 57.9,41.8 C58,41.7 58.1,41.6 58.2,41.5 C58.5,41.3 58.8,41 59,40.6 C59.3,40.1 59.5,39.7 59.8,39.2 C59.8,39.1 59.8,39.1 59.8,39 C59.8,38.7 59.9,38.5 59.9,38.2 C60,37.7 60.1,37.2 60,36.7 C59.9,36.2 59.8,35.7 59.6,35.2 C59.4,34.7 59.1,34.3 58.7,34 C58.5,33.8 58.2,33.7 58,33.6 C57.5,33.3 56.9,33.2 56.3,33.4 C56.2,33.4 56.1,33.4 56.1,33.4 C56,33.6 55.7,33.6 55.6,33.8 C55.6,33.9 55.5,33.9 55.4,34 C55.3,34.1 55.3,34.2 55.2,34.3 C55.1,34.5 55.1,34.7 54.9,34.8 C54.6,35.1 54.5,35.4 54.4,35.8 C54.2,36.3 54,36.8 53.7,37.2 C53.7,37.2 53.6,37.3 53.6,37.4 C53.5,37.9 53.3,38.4 53.1,38.9 C53,39.1 52.9,39.4 52.8,39.6 C52.8,39.6 52.8,39.7 52.8,39.7 C52.9,39.9 52.8,40 52.7,40.2 C52.7,40.3 52.7,40.3 52.7,40.4 C52.7,40.6 52.7,40.7 52.6,40.9 C52.5,41.1 52.5,41.2 52.5,41.4 C52.5,41.5 52.5,41.7 52.5,41.8 C52.4,42 52.4,42.2 52.4,42.4 C52.4,42.5 52.4,42.6 52.4,42.8 C52.3,42.8 52.3,42.8 52.2,42.7 C52,42.6 51.9,42.4 51.8,42.3 C51.5,41.9 51.2,41.5 51,41 C50.9,40.6 50.7,40.2 50.5,39.9 C50.4,39.7 50.3,39.5 50.3,39.3 C50.2,38.7 50,38.1 49.9,37.4 C49.9,37 49.8,36.7 49.9,36.3 C49.9,36.2 49.9,36.1 49.9,36 C49.9,35.7 49.8,35.6 49.6,35.5 C49.2,35.3 48.8,35.4 48.5,35.6 C48.4,35.7 48.3,35.8 48.2,35.9 C48,36 47.9,36.2 47.8,36.4 C47.6,36.7 47.4,37 47.2,37.3 C47.1,37.4 47.1,37.5 47.2,37.6 C47.2,37.7 47.3,37.7 47.4,37.7 C47.4,37.7 47.5,37.7 47.6,37.7 C47.6,37.8 47.6,37.8 47.6,37.9 C47.5,38.6 47.5,39.3 47.3,40.1 C47.2,40.6 47.1,41.1 47,41.5 C46.8,42.3 46.7,43.2 46.5,44 C46.5,44.2 46.4,44.4 46.4,44.5 C46.3,45 46.3,45.5 46.1,45.9 C46.1,45.9 46.1,46 46.1,46 C46,46.7 45.9,47.4 45.8,48.1 C45.7,48.7 45.6,49.2 45.5,49.8 C45.5,49.8 45.5,49.9 45.4,49.9 C45.4,49.8 45.3,49.7 45.3,49.7 C45.2,49.3 45.1,49 45,48.6 C45,48.5 44.9,48.4 44.9,48.3 C44.8,48 44.7,47.8 44.7,47.5 C44.6,47.3 44.6,47.2 44.5,47 C44.4,46.6 44.3,46.2 44.2,45.8 C44.1,45.4 44,45 43.9,44.7 C43.9,44.7 43.9,44.6 43.9,44.6 C43.7,44 43.4,43.4 43.3,42.8 C43.3,42.7 43.2,42.6 43.2,42.5 C43.1,42.1 42.9,41.8 42.8,41.4 C42.7,41.1 42.6,40.8 42.5,40.5 C42.4,40.3 42.4,40.1 42.3,39.9 C42.2,39.7 42.1,39.4 42,39.2 C42,39.1 42,39 42,38.9 C41.9,38.7 41.8,38.4 41.7,38.2 C41.6,37.8 41.4,37.3 41.3,36.9 C41.1,36.3 41,35.7 40.8,35.1 C40.7,34.8 40.7,34.5 40.6,34.2 C40.5,33.9 40.5,33.6 40.5,33.2 C40.5,32.8 40.5,32.4 40.5,32 C40.5,31.8 40.4,31.6 40.5,31.4 C40.5,31.1 40.5,30.9 40.4,30.7 C40.3,30.5 40.1,30.3 40,30.2 C39.8,30.1 39.5,30.1 39.3,30.1 C38.9,30.1 38.6,30.4 38.3,30.7 C38.2,30.8 38.1,31 37.9,31.2 C37.8,31.3 37.7,31.5 37.8,31.7 C37.8,31.8 37.9,31.9 37.8,31.9 C37.7,32.1 37.6,32.3 37.4,32.5 C36.9,32.1 36.6,32.1 36.1,32.4 C35.8,32.5 35.6,32.6 35.3,32.6 C35.1,32.5 34.9,32.6 34.8,32.7 C34.6,32.9 34.4,33.1 34.3,33.4 C34.1,33.9 34.4,34.2 34.6,34.6 C34.8,34.7 34.8,34.9 34.7,35.1 C34.3,36.1 33.8,37.1 33.4,38.1 C33.1,38.7 32.8,39.3 32.6,39.9 C32.5,40.2 32.3,40.6 32.2,40.9 C32,41.4 31.9,41.9 31.7,42.4 C31.5,42.9 31.4,43.4 31.2,43.9 C31.1,44.1 31,44.4 30.9,44.6 C30.9,44.7 30.8,44.7 30.8,44.8 C30.6,45.5 30.3,46.2 30,46.9 C29.9,47.2 29.8,47.4 29.7,47.7 C29.7,47.8 29.7,47.8 29.6,47.9 C29.4,48.1 29.4,48.3 29.4,48.6 C29.4,48.7 29.4,48.8 29.3,48.9 C29,49.3 28.9,49.7 28.8,50.2 C28.6,50.8 28.4,51.4 28.1,51.9 C27.9,52.3 27.8,52.7 27.6,53 C27.3,53.7 26.9,54.4 26.6,55.1 C26.4,55.4 26.4,55.8 26.2,56 C26.1,56.1 26,56.3 25.9,56.5 C25.6,57.1 25.3,57.7 25,58.4 C25,58.4 25,58.5 24.9,58.5 C24.6,58.9 24.3,59.4 24,59.8 C23.9,60 23.7,60.3 23.5,60.5 C23.3,60.7 23.2,61 22.9,61.1 C22.9,61.1 22.9,61.1 22.9,61.2 C22.6,61.8 22.4,61.9 21.7,62.2 C21.7,62.2 21.7,62.2 21.7,62.2 C21.5,62.3 21.3,62.3 21.2,62.2 C21,62 20.9,61.8 20.8,61.6 C20.3,61 20,60.5 19.9,60 C19.8,59.8 19.7,59.5 19.6,59.3 C19.6,59.2 19.6,59.1 19.5,59.1 C19.5,59 19.4,58.9 19.4,58.8 C19.3,58.3 19.2,57.8 19,57.2 C19,57 18.9,56.7 18.9,56.5 C18.9,56.3 18.8,56.1 18.8,55.9 C18.7,55.3 18.7,54.7 18.6,54.1 C18.6,54 18.6,53.8 18.5,53.7 C18.5,53.4 18.5,53.2 18.4,52.9 C18.4,52.5 18.3,52.1 18.3,51.7 C18.3,51.3 18.2,51 18.2,50.6 C18.1,50 18,49.5 18,48.9 C18,48.6 17.9,48.3 18,48 C18,47.9 17.9,47.8 17.9,47.7 C17.9,47.5 17.9,47.2 17.9,47 C17.9,46.4 17.8,45.8 17.8,45.3 C17.8,44.7 17.8,44.1 17.8,43.5 C17.8,43.1 17.8,42.7 17.8,42.3 C17.8,42.2 17.8,42.1 17.9,42.1 C18.2,41.8 18.4,41.4 18.7,41 C18.9,40.8 19,40.6 19.1,40.4 C19.2,40.2 19.4,39.9 19.5,39.7 C19.9,39.2 20.2,38.6 20.6,38.1 C20.8,37.8 21.1,37.4 21.3,37.1 C21.6,36.6 21.9,36 22.2,35.5 C22.3,35.4 22.3,35.2 22.3,35.1 C22.3,35 22.3,34.9 22.4,34.9 C22.4,34.9 22.5,34.8 22.5,34.8 C22.7,34.5 22.8,34.2 23,34 C23.2,33.6 23.5,33.1 23.7,32.7 C23.8,32.5 23.9,32.2 24,32 C24.2,31.5 24.5,31 24.7,30.5 C25,29.9 25.3,29.3 25.5,28.7 C25.6,28.4 25.7,28 25.9,27.7 C26,27.3 26.2,26.9 26.3,26.5 C26.5,26.1 26.7,25.8 26.7,25.4 C26.7,25.4 26.7,25.3 26.7,25.3 C26.9,24.9 27.1,24.5 27.2,24.1 C27.4,23.6 27.6,23 27.8,22.5 C28,21.9 28.2,21.3 28.4,20.7 C28.4,20.7 28.4,20.6 28.4,20.6 C28.6,20.2 28.7,19.7 28.9,19.3 C29,19.1 29,19 29,18.8 C29.3,18 29.5,17.1 29.8,16.2 C30,15.6 30.1,14.9 30.2,14.2 C30.3,13.8 30.3,13.4 30.4,13 C30.5,12.5 30.6,12.1 30.6,11.6 C30.6,11.2 30.6,10.8 30.7,10.4 C31,9.3 31,8.7 31,8.1 C31,7.3 31,6.4 30.7,5.6 C30.7,5.6 30.7,5.6 30.7,5.6 C30.7,5.3 30.6,5.1 30.5,4.8 C30.5,4.7 30.5,4.7 30.5,4.6 C30.4,4.3 30.4,4 30.3,3.7 C30.2,3.4 30.1,3.1 29.9,2.8 C29.9,2.8 29.9,2.7 29.9,2.7 C29.8,2.5 29.7,2.3 29.6,2.1 C29.5,2 29.4,1.8 29.3,1.7 C29,1.4 28.7,1 28.3,0.9 C28.2,0.9 28.2,0.8 28.1,0.9 C27.9,1 27.6,0.9 27.5,1.1 C27.5,1.1 27.4,1.1 27.4,1.1 C27.3,1.2 27.1,1.3 27,1.4 C26.8,1.8 26.5,2.2 26.2,2.6 C26.1,2.8 26,2.9 25.9,3.1 C25.8,3.3 25.6,3.4 25.5,3.6 C25.3,3.8 25.2,4.2 24.9,4.4 C24.9,4.4 24.9,4.4 24.9,4.5 C24.7,5 24.3,5.3 24.1,5.8 C23.9,6.3 23.5,6.7 23.2,7.2 C23,7.6 22.7,8 22.5,8.5 C22.2,9.1 21.9,9.6 21.6,10.1 C21.3,10.7 20.9,11.3 20.6,11.9 C20.3,12.4 20.1,12.8 19.8,13.3 C19.5,13.9 19.2,14.5 19,15.1 C18.7,15.8 18.3,16.5 18.1,17.2 C17.9,17.7 17.7,18.2 17.5,18.7 C17.4,18.9 17.4,19.1 17.3,19.3 C17.2,19.6 17.1,20 17,20.3 C16.8,20.8 16.7,21.2 16.5,21.7 C16.4,22 16.4,22.3 16.3,22.5 C16.1,23.2 15.9,23.8 15.8,24.5 C15.7,24.9 15.5,25.3 15.6,25.8 C15.4,26 15.5,26.3 15.5,26.6 C15.5,26.7 15.5,26.8 15.5,26.9 C15.4,27.6 15.2,28.3 15.1,29 C15.1,29.2 15.1,29.4 15,29.5 C14.9,29.7 14.9,29.9 14.9,30 C14.9,30.2 14.8,30.5 14.8,30.7 C14.8,31.2 14.7,31.7 14.7,32.3 C14.7,32.4 14.7,32.6 14.7,32.7 C14.7,33 14.6,33.2 14.6,33.5 C14.6,34 14.6,34.4 14.6,34.9 C14.6,35 14.6,35.1 14.6,35.2 C14.6,35.4 14.5,35.5 14.6,35.7 C14.6,35.8 14.6,35.9 14.6,35.9 C14.6,36 14.6,36.1 14.6,36.2 C14.5,36.6 14.6,36.9 14.5,37.3 C14.5,37.3 14.5,37.4 14.5,37.4 C14.5,37.7 14.6,38 14.5,38.3 C14.5,38.4 14.5,38.5 14.5,38.6 C14.6,38.8 14.5,39 14.5,39.2 C14.5,39.4 14.5,39.6 14.5,39.8 C14.5,40 14.5,40.2 14.5,40.4 C14.5,40.8 14.6,41.3 14.5,41.7 C14.5,42.1 14.5,42.5 14.5,42.9 C14.5,43.4 14.6,43.9 14.6,44.4 C14.6,44.6 14.6,44.9 14.4,45 C14.3,45.2 14.2,45.3 14,45.5 C13.7,45.8 13.4,46.2 13.1,46.5 C12.8,46.8 12.5,47.1 12.2,47.5 C12,47.7 11.7,48 11.5,48.2 C11.4,48.3 11.3,48.5 11.1,48.6 C10.9,48.7 10.7,48.9 10.5,49.1 C10.3,49.3 10.1,49.6 9.8,49.8 C9.5,50 9.2,50.2 9,50.5 C8.8,50.7 8.6,50.9 8.4,51.1 C8.3,51.2 8.2,51.3 8,51.4 C7.6,51.7 7.2,52 6.8,52.4 C6.6,52.6 6.5,52.8 6.2,52.8 C6.2,52.8 6.1,52.8 6.1,52.9 C6,53 5.7,53.2 5.5,53.3 C5,53.6 4.7,54.1 4.2,54.2 C4.2,54.2 4.2,54.2 4.1,54.3 C4,54.4 3.9,54.5 3.8,54.5 C3.6,54.6 3.3,54.8 3.1,54.9 C2.9,55 2.7,55.2 2.5,55.3 C2.4,55.4 2.3,55.4 2.1,55.4 C2,55.4 1.8,55.4 1.7,55.5 C1.6,55.5 1.5,55.6 1.4,55.6 C1.2,55.6 1.1,55.8 0.9,55.9 C0.7,56.1 0.7,56.4 0.7,56.7 C0.7,57 0.9,57.3 1.2,57.4 C1.4,57.5 1.6,57.6 1.9,57.5 C1.9,57.5 2,57.5 2,57.5 C2.2,57.6 2.3,57.5 2.4,57.4 C2.8,57.5 3,57.2 3.2,57 C3.5,56.7 3.7,56.3 4.2,56.2 C4.2,56.2 4.2,56.2 4.3,56.1 C4.7,55.8 5.2,55.5 5.5,55.2 C5.6,55.1 5.7,55 5.9,54.9 C6.2,54.7 6.5,54.5 6.8,54.3 C6.9,54.2 7.1,54 7.2,53.9 C7.6,53.6 8,53.2 8.4,52.8 C8.8,52.4 9.1,52 9.6,51.6 C10.1,51.1 10.5,50.6 11,50.1 C11.3,49.8 11.5,49.5 11.8,49.2 C12.3,48.7 12.8,48.2 13.3,47.6 C13.6,47.3 13.9,47 14.1,46.7 C14.2,46.6 14.3,46.5 14.4,46.4 C14.5,46.5 14.5,46.5 14.5,46.5 C14.5,46.5 14.5,46.6 14.5,46.6 C14.5,47 14.5,47.4 14.6,47.7 C14.6,47.7 14.6,47.8 14.6,47.8 C14.6,48 14.5,48.3 14.7,48.5 C14.7,48.5 14.7,48.5 14.7,48.6 C14.7,48.9 14.7,49.2 14.8,49.5 C14.8,49.8 14.9,50.2 14.9,50.5 C14.9,50.6 14.9,50.7 14.9,50.8 C14.9,51.2 14.9,51.6 15.1,52 C15.1,52.1 15.1,52.1 15.1,52.2 C15.1,52.4 15.1,52.5 15.2,52.6 C15.2,52.6 15.2,52.7 15.2,52.7 C15.2,52.8 15.2,52.9 15.3,53 C15.3,53.2 15.3,53.3 15.4,53.5 C15.4,53.7 15.4,53.9 15.5,54.1 C15.5,54.2 15.5,54.3 15.6,54.4 C15.6,54.5 15.6,54.6 15.6,54.7 C15.8,55 15.7,55.3 15.8,55.6 C15.9,56.1 16,56.7 16.1,57.3 C16.2,57.8 16.4,58.3 16.5,58.8 C16.6,59.3 16.9,59.8 17.1,60.2 C17.2,60.5 17.4,60.8 17.6,61.1 C17.7,61.4 17.9,61.6 18,61.8 C18.1,62 18.2,62.1 18.3,62.3 C18.3,62.4 18.4,62.4 18.5,62.5 C18.6,62.6 18.8,62.8 18.9,62.9 C18.9,62.9 19,63 19,63 C19.1,63.1 19.3,63.2 19.4,63.4 C19.7,63.7 20,64 20.4,64.1 C20.7,64.2 21,64.4 21.4,64.4 C21.6,64.4 21.7,64.5 21.9,64.5 C22.2,64.6 22.6,64.6 22.9,64.4 C23.1,64.3 23.2,64.2 23.4,64.1 C23.7,64 23.9,63.8 24.1,63.6 C24.2,63.4 24.4,63.3 24.6,63.2 C24.9,63 25,62.7 25.1,62.4 C25.1,62.3 25.2,62.3 25.2,62.2 C25.4,62 25.6,61.8 25.6,61.5 C25.6,61.3 25.7,61.3 25.8,61.2 C26,61.1 26.1,60.8 26.2,60.6 C26.2,60.4 26.3,60.3 26.4,60.2 C26.6,59.9 26.9,59.6 27,59.3 C27,59.2 27.1,59.2 27.1,59.2 C27.3,59 27.4,58.8 27.4,58.5 C27.4,58.4 27.5,58.2 27.6,58.1 C27.8,57.7 28.1,57.3 28.2,56.9 C28.2,56.9 28.2,56.8 28.3,56.8 C28.4,56.6 28.6,56.4 28.7,56.2 C29,55.6 29.3,54.9 29.7,54.3 C29.9,53.9 30.1,53.5 30.3,53.1 C30.5,52.6 30.7,52 30.9,51.4 C30.9,51.3 30.9,51.3 31,51.2 C31.2,51.1 31.2,50.9 31.2,50.7 C31.2,50.6 31.2,50.6 31.3,50.5 C31.4,50.2 31.5,50 31.6,49.7 C31.7,49.6 31.7,49.5 31.8,49.3 C31.9,49.4 31.9,49.5 32,49.6 C32.2,49.8 32.3,50 32.5,50.3 C32.8,50.6 33.1,50.8 33.5,51 C33.9,51.2 34.3,51.2 34.7,51.1 C35,51.1 35.3,50.9 35.5,50.6 C35.5,50.5 35.6,50.5 35.7,50.5 C35.8,50.4 35.9,50.3 35.9,50.3 C36,50.2 36.1,50 36.2,49.9 C36.4,49.6 36.5,49.4 36.7,49.1 C36.7,49 36.8,48.9 36.8,48.9 C36.9,48.6 37.1,48.3 37.2,48 C37.2,47.9 37.3,47.8 37.3,47.7 C37.4,47.4 37.5,47.1 37.6,46.8 C37.8,46.3 37.9,45.9 38,45.4 C38.2,44.6 38.4,43.8 38.6,43.1 C38.8,42.3 38.8,41.6 38.9,40.8 C38.9,40.5 38.9,40.1 38.9,39.8 C39,39.1 38.9,38.5 38.8,37.9 C38.8,37.5 38.7,37.1 38.6,36.7 C38.5,36.4 38.5,36.1 38.4,35.8 C38.3,35.4 38.1,35.1 37.9,34.7 C37.8,34.4 37.8,34.3 38.1,34.1 C38.1,34.1 38.2,34.2 38.2,34.2 C38.3,34.5 38.3,34.8 38.4,35.1 C38.5,35.4 38.5,35.8 38.6,36.1 C38.7,36.6 38.8,37.1 38.9,37.5 C39,37.8 39,38.1 39.1,38.4 C39.3,38.8 39.2,39.2 39.4,39.5 C39.4,39.5 39.4,39.6 39.4,39.6 C39.4,39.7 39.4,39.7 39.4,39.8 C39.5,40.1 39.7,40.4 39.6,40.8 C39.6,40.8 39.6,40.9 39.6,40.9 C39.9,41.2 39.9,41.6 40,42 C40.1,42.2 40.1,42.5 40.2,42.7 C40.3,43.1 40.4,43.4 40.5,43.7 C40.7,44.2 40.6,44.7 40.9,45.1 C40.9,45.1 40.9,45.1 40.9,45.2 C41,45.6 41.1,46 41.2,46.5 C41.2,46.6 41.2,46.8 41.3,46.9 C41.4,47.3 41.6,47.6 41.7,48 C41.8,48.3 41.9,48.6 42,48.9 C42.2,49.5 42.5,50 42.6,50.6 C42.7,51.2 43,51.6 43.1,52.2 C43.2,52.6 43.4,53 43.5,53.4 C43.5,53.5 43.6,53.5 43.6,53.6 C43.6,53.7 43.7,53.7 43.7,53.8 C43.8,54.1 43.8,54.3 43.9,54.6 C44,54.8 44,55.1 44.1,55.3 C44,55.3 43.9,55.4 43.8,55.4 C43.7,55.4 43.7,55.5 43.6,55.6 C43.5,55.8 43.6,56 43.9,56.1 C44,56.1 44.1,56.2 44.2,56.3 C44.5,56.7 44.9,57 45.2,57.4 C45.5,57.7 45.8,57.9 46.1,58.1 C46.3,58.2 46.4,58.3 46.6,58.3 C46.8,58.3 46.9,58.3 47.1,58.4 C47.4,58.5 47.6,58.3 47.8,58.2 C47.9,58.1 48.1,58 48,57.8 C48,57.6 47.9,57.3 47.9,57.1 C47.8,56.7 47.7,56.3 47.5,55.9 C47.4,55.5 47.3,55 47.4,54.6 C47.4,54.4 47.5,54.2 47.5,54.1 C47.5,53.9 47.5,53.6 47.5,53.4 C47.5,53.1 47.5,52.8 47.6,52.5 C47.7,52.2 47.6,51.9 47.6,51.6 C47.7,51.4 47.6,51.1 47.6,50.9 C47.7,50.1 47.8,49.3 47.9,48.4 C47.9,48.2 47.9,47.9 48,47.7 C48.1,47.3 48.1,47 48.2,46.6 C48.2,46.2 48.2,45.8 48.3,45.4 C48.3,45.3 48.3,45.2 48.4,45.1 C48.4,45 48.4,44.9 48.4,44.9 C48.4,44.5 48.4,44.1 48.6,43.7 C48.7,43.5 48.7,43.3 48.6,43.2 C48.8,42.6 48.9,42.1 49,41.5 C49.1,41.6 49.1,41.6 49.2,41.6 C49.4,41.9 49.6,42.1 49.8,42.4 C50,42.7 50.2,42.9 50.5,43.1 C51,43.5 51.6,43.9 52.3,44.1 C52.5,44.2 52.6,44.3 52.6,44.5 C52.7,45.3 52.8,46.1 53.1,46.9 C53.2,47.2 53.2,47.6 53.5,47.9 C53.5,47.9 53.5,48 53.5,48 C53.6,48.3 53.7,48.6 53.9,48.8 C54.2,49.2 54.4,49.6 54.8,50 C55.5,50.7 56.2,51.3 57.1,51.8 C57.3,51.9 57.6,52 57.8,52.1 C58.4,52.5 59.1,52.7 59.9,52.9 C60.2,53 60.6,53 60.9,53.1 C61.1,53.1 61.3,53.2 61.5,53.2 C62,53.2 62.5,53.3 63,53.3 C63.7,53.3 64.4,53.2 65,53.1 C65.4,53.1 65.7,53 66.1,52.9 C66.4,52.9 66.7,52.8 67,52.7 C67.6,52.5 68.2,52.3 68.9,52.3 C69.1,52.3 69.3,52.3 69.4,52.2 C69.9,52 70.4,52 71,51.8 C71.3,51.7 71.7,51.7 72,51.6 C72.2,51.6 72.4,51.5 72.6,51.7 C72.8,51.8 72.9,51.8 73.1,51.9 C73.3,52 73.4,52.1 73.6,52.2 C73.8,52.3 73.9,52.4 74.1,52.5 C74.3,52.6 74.6,52.6 74.8,52.8 C75.1,53 75.5,53 75.8,53 C76,53 76.3,52.9 76.5,53 C76.7,53 76.9,52.9 77,52.9 C77.2,52.8 77.4,52.6 77.6,52.4 C77.8,52.2 78,52.1 78,51.9 C77.5,51 77.5,50.7 77.4,50.3 Z M17.9,38.4 C17.9,38.1 18,37.8 18,37.5 C18,37.2 18,37 18,36.7 C18,36.6 18,36.6 18,36.5 C18,36.3 18.1,36.1 18.1,35.9 C18.1,35.2 18.2,34.5 18.3,33.8 C18.4,33.2 18.3,32.6 18.4,32.1 C18.5,31.6 18.5,31.2 18.5,30.7 C18.5,30 18.7,29.3 18.7,28.7 C18.7,28.2 18.8,27.7 18.8,27.2 C18.9,26.9 18.8,26.5 18.8,26.2 C18.8,26 18.9,25.7 19,25.5 C19,25.5 19,25.4 19,25.4 C18.9,25.2 19,24.9 19,24.7 C19,24.5 19,24.3 19,24.2 C19,24 19.1,23.9 19.1,23.7 C19.1,23.4 19.2,23 19.2,22.7 C19.2,22.4 19.2,22.2 19.3,21.9 C19.3,21.6 19.4,21.4 19.4,21.1 C19.5,20.5 19.6,19.9 19.7,19.3 C19.8,18.9 19.7,18.5 19.9,18.2 C19.9,18.2 19.9,18.1 19.9,18.1 C19.9,17.9 19.9,17.8 19.9,17.6 C20,17.3 20.1,17 20.2,16.8 C20.3,16.3 20.5,15.9 20.6,15.4 C20.7,14.8 21,14.2 21.2,13.7 C21.3,13.4 21.5,13.1 21.6,12.8 C21.7,12.6 21.7,12.4 21.8,12.3 C22,12 22,11.6 22.2,11.2 C22.4,10.6 22.6,10.1 22.9,9.5 C23.1,9 23.3,8.6 23.5,8.1 C23.6,7.9 23.7,7.7 23.8,7.5 C24,7.2 24.1,7 24.2,6.8 C24.3,6.6 24.5,6.3 24.6,6.1 C24.9,5.3 25.4,4.7 25.8,4 C26.1,3.6 26.4,3.1 26.8,2.8 C27,2.6 27.3,2.4 27.5,2.2 C27.9,1.9 28.4,2.1 28.5,2.5 C28.6,2.9 28.8,3.4 28.9,3.8 C29,4.2 29.1,4.6 29.2,5 C29.3,5.3 29.3,5.6 29.3,5.9 C29.3,6.2 29.4,6.6 29.4,6.9 C29.4,7.2 29.4,7.4 29.4,7.7 C29.4,8 29.4,8.4 29.4,8.7 C29.5,9.1 29.4,9.5 29.3,10 C29.3,10.6 29.3,11.3 29.2,11.9 C29.1,12.8 28.9,13.6 28.8,14.5 C28.6,15.5 28.3,16.6 28.1,17.6 C28,18 27.8,18.4 27.7,18.9 C27.5,19.8 27.1,20.6 26.8,21.4 C26.6,21.9 26.5,22.3 26.3,22.8 C26.1,23.2 26,23.7 25.8,24.1 C25.6,24.6 25.4,25.1 25.2,25.5 C25.2,25.6 25.1,25.6 25.1,25.7 C24.9,26.3 24.6,26.8 24.4,27.3 C24.2,27.9 23.9,28.5 23.6,29.1 C23.3,29.9 22.9,30.6 22.6,31.4 C22.4,31.9 22.2,32.3 22,32.8 C21.6,33.6 21.2,34.4 20.7,35.2 C20.2,36 19.8,36.8 19.3,37.6 C18.9,38.3 18.4,39 17.9,39.7 C17.9,39.7 17.8,39.7 17.8,39.8 C17.8,39.4 17.9,39.1 17.9,38.8 C18,38.7 17.9,38.6 17.9,38.4 Z M36.6,42 C36.5,42.5 36.4,43.1 36.3,43.7 L35.5,46.4 C35.4,46.7 35.3,47 35.2,47.2 C35.1,47.4 35.1,47.6 35,47.8 C34.8,48.3 34.5,48.9 34.3,49.4 C34.2,49.6 33.8,50 33.6,50.1 C33.5,50 33.4,49.9 33.4,49.8 C33.3,49.5 33.1,49.2 33.1,48.8 C33.1,48.7 33,48.6 33,48.6 C33,48.3 33,48.1 33,47.8 C33,47.1 33,46.3 33,45.6 C33,45.2 33.1,44.9 33.1,44.5 C33.2,44.1 33.2,43.7 33.3,43.3 C33.3,43.1 33.4,42.9 33.4,42.8 C33.6,42.1 33.8,41.5 34,40.8 C34.1,40.3 34.3,39.9 34.4,39.4 C34.4,39.2 34.4,39.1 34.5,38.9 C34.6,38.6 34.7,38.3 34.8,38.1 C35.1,37.4 35.4,36.7 35.7,36 C35.8,35.8 35.9,35.7 36,35.5 C36,35.4 36.1,35.4 36.2,35.4 C36.3,35.4 36.3,35.5 36.4,35.6 C36.6,36 36.7,36.5 36.8,36.9 C36.9,37.4 37,37.9 37,38.4 C37.1,38.9 37.1,39.5 37.1,40 C36.8,40.7 36.7,41.3 36.6,42 Z M53.4,42.8 C53.4,42.7 53.4,42.5 53.4,42.4 C53.4,42.4 53.4,42.4 53.4,42.4 C53.4,41.8 53.5,41.2 53.5,40.6 C53.6,40.2 53.7,39.8 53.9,39.5 C54.1,39.2 54.1,38.9 54.3,38.6 C54.5,38.2 54.6,37.8 54.9,37.5 C55,37.4 55.1,37.2 55.2,37.1 C55.4,36.9 55.5,36.7 55.7,36.5 C55.8,36.4 55.9,36.2 56,36.1 C56.2,35.9 56.5,35.8 56.8,35.7 C57.2,35.6 57.5,35.7 57.8,35.9 C58.4,36.4 58.5,37.2 58.5,37.9 L56.4,41.7 C56,42 55.6,42.4 55.1,42.7 C54.8,42.9 54.4,43.1 54,43.2 C53.5,43.1 53.4,43.1 53.4,42.8 Z"></path>
                    </g>
                    <path d="M36.3,43.6 C36.4,43 36.5,42.5 36.6,41.9 L35.4,46.3 L36.3,43.6 Z"></path>
                </g>
                <path d="M85.5,52.4 C85.4,52.2 85.3,51.9 85.1,51.8 C85.1,51.8 85,51.7 85,51.7 C84.8,51.4 84.4,51.4 84.1,51.2 C84.1,51.2 84,51.2 83.9,51.2 C83.8,51.2 83.8,51.2 83.7,51.2 C83.3,51.1 83,51.4 82.7,51.4 C82.5,51.4 82.4,51.6 82.2,51.8 C82,52 81.8,52.3 81.6,52.5 C81.5,52.6 81.5,52.8 81.5,52.9 C81.5,53.1 81.6,53.2 81.5,53.4 C81.5,53.5 81.5,53.6 81.5,53.6 C81.6,53.8 81.5,54 81.4,54.2 C81,55 80.6,55.8 80.2,56.6 C80,57 79.7,57.3 79.6,57.7 C79.3,57.9 79.4,58.2 79.2,58.4 C79.1,58.5 79.1,58.6 79.1,58.7 C79,58.9 79,59 78.9,59.1 L78.9,59.1 C78.8,59.3 78.6,59.4 78.6,59.6 C78.5,60 78.2,60.3 78.1,60.7 C78,60.8 78,60.9 78,61.1 C78,61.1 78,61.2 78,61.3 C78.1,61.1 78.3,61 78.3,60.8 C78.3,60.8 78.3,60.7 78.4,60.7 C78.5,60.6 78.6,60.4 78.7,60.3 C78.9,60.2 78.7,60 78.8,59.9 C78.9,59.8 78.9,59.8 79,59.7 C79,59.6 79.1,59.6 79.2,59.5 L79.2,59.5 C79.3,59.4 79.5,59.1 79.6,59.1 C79.7,59.1 80,58.9 80,58.9 C80.1,58.9 80.1,58.9 80.1,58.9 C80.2,58.9 80.2,58.7 80.3,58.7 C80.4,58.7 80.5,58.6 80.6,58.6 C80.6,58.6 80.7,58.6 80.7,58.6 C80.9,58.6 81.1,58.5 81.1,58.3 C81.1,58.1 81.2,58 81.4,58 C81.4,58 81.5,58 81.5,58 C81.5,58 81.5,57.9 81.5,57.9 C81.9,57.8 82.2,57.6 82.6,57.5 C82.9,57.4 83.1,57.2 83.3,57 C83.5,56.8 83.7,56.5 83.9,56.3 C84.2,55.9 84.5,55.4 84.8,55 C84.9,54.8 85,54.6 85.2,54.5 C85.2,54.5 85.3,54.4 85.3,54.4 C85.3,54.1 85.5,53.8 85.5,53.5 C85.6,52.9 85.7,52.7 85.5,52.4 Z" id="Shape"></path>
            </g>
            <g id="Group" transform="translate(94.000000, 18.000000)">
                <path d="M4,38.6 L0.1,38.6 C0.1,38.6 0.6,23.6 0.6,9.2 C0.6,6.7 0.5,1.4 0.5,1.4 L3.2,1.4 C3.2,1.4 14.1,17.5 22.7,29 L22.7,14.5 C22.7,4.1 22.1,1.4 22.1,1.4 L26,1.4 C26,1.4 25.5,15 25.5,30.9 C25.5,32.4 25.6,38.7 25.6,38.7 L22.9,38.7 C22.9,38.7 10.7,20.6 3.6,11.2 L3.6,25.5 C3.6,35.9 4,38.6 4,38.6" id="Shape"></path>
                <path d="M70.5,19.9 C70.5,31.3 63.4,39.2 53.1,39.2 C42.9,39.2 35.7,31.3 35.7,19.9 C35.7,8.5 42.5,0.7 53.1,0.7 C63.6,0.7 70.5,8.5 70.5,19.9 M64.8,19.9 C64.8,9.2 60.6,3 53.1,3 C45.6,3 41.4,9.3 41.4,19.9 C41.4,30.7 45.4,37 53.1,37 C60.7,37 64.8,30.6 64.8,19.9" id="Shape"></path>
                <path d="M92.3,19.8 C95.6,26.3 102.9,38.6 102.9,38.6 L96.9,38.6 C96.9,38.6 92.6,30 86,18.1 L87.4,18.1 C93.1,18.1 95.6,15.6 95.6,10.7 C95.6,6.4 93.2,3.5 88.5,3.5 C87.1,3.5 85.1,3.8 85.1,3.8 C85.1,3.8 85,5.9 85,10.7 L85,26.1 C85,34.4 85.4,38.5 85.4,38.5 L80,38.5 C80,38.5 80.4,23.8 80.4,16.2 C80.4,10.9 80,1.3 80,1.3 L90.7,1.3 C97,1.3 100.4,4.5 100.4,10 C100.4,15 97.5,18.3 92.3,19.8" id="Shape"></path>
                <path d="M123.4,38.6 L111.8,38.6 C111.8,38.6 112.3,26.8 112.3,19.9 C112.3,13.2 111.8,1.3 111.8,1.3 L125.2,1.3 C136.1,1.3 141.8,7.4 141.8,19.2 C141.8,31.2 135,38.6 123.4,38.6 M122.4,3.6 C119.5,3.6 117.2,3.8 117.2,3.8 C117.2,3.8 117.1,13.3 117.1,19.9 C117.1,27.5 117.3,36 117.3,36 C117.3,36 119.3,36.4 121.7,36.4 C131.3,36.4 136.1,30.4 136.1,19.5 C136.2,9.3 131.5,3.6 122.4,3.6" id="Shape"></path>
                <path d="M165.9,28.9 C165.2,25.7 163,23.8 159,21.5 C153.8,18.5 150.8,16.4 150.2,11.4 C149.6,5.2 154.6,0.7 160.9,0.7 C164.4,0.7 167.5,1.4 168.8,1.8 L168.8,6.2 C168.8,6.2 165.9,2.9 161.2,2.9 C157.5,2.9 154.4,4.9 154.4,8.7 C154.4,12 157,13.5 161.5,16.1 C167.5,19.6 170.5,22.5 170.5,27.8 C170.5,34.4 165.1,39.2 158.6,39.2 C155.1,39.2 152.3,38.6 150.7,38.1 L150.7,33.7 C150.7,33.7 153.9,37 159.2,37 C163.9,37 166.8,33.2 165.9,28.9" id="Shape"></path>
                <path d="M202.4,4.9 C202.4,4.9 199.7,4 195.3,4 L193,4 C193,4 192.9,12 192.9,14.8 C192.9,25.2 193.4,38.5 193.4,38.5 L187.5,38.5 C187.5,38.5 188.1,25.1 188.1,14.8 C188.1,12 188,4 188,4 L185.7,4 C181.3,4 178.5,4.9 178.5,4.9 L178.5,1.4 L202.5,1.4 L202.5,4.9 L202.4,4.9 Z" id="Shape"></path>
                <path d="M223.9,19.8 C227.2,26.3 234.5,38.6 234.5,38.6 L228.5,38.6 C228.5,38.6 224.2,30 217.6,18.1 L219,18.1 C224.7,18.1 227.2,15.6 227.2,10.7 C227.2,6.4 224.8,3.5 220.1,3.5 C218.7,3.5 216.7,3.8 216.7,3.8 C216.7,3.8 216.6,5.9 216.6,10.7 L216.6,26.1 C216.6,34.4 217,38.5 217,38.5 L211.7,38.5 C211.7,38.5 212.1,23.8 212.1,16.2 C212.1,10.9 211.7,1.3 211.7,1.3 L222.4,1.3 C228.7,1.3 232.1,4.5 232.1,10 C232.1,15 229.1,18.3 223.9,19.8" id="Shape"></path>
                <path d="M275.3,19.9 C275.3,31.3 268.2,39.2 257.9,39.2 C247.7,39.2 240.5,31.3 240.5,19.9 C240.5,8.5 247.3,0.7 257.9,0.7 C268.4,0.7 275.3,8.5 275.3,19.9 M269.6,19.9 C269.6,9.2 265.4,3 257.9,3 C250.4,3 246.2,9.3 246.2,19.9 C246.2,30.7 250.2,37 257.9,37 C265.5,37 269.6,30.6 269.6,19.9" id="Shape"></path>
                <path d="M313.8,38.6 C313.8,38.6 313.7,21.7 312.8,12.2 L301.3,39.5 C301.3,39.5 293.8,22.2 289.2,12.5 C288.2,22.4 287.9,38.7 287.9,38.7 L284.3,38.7 C284.3,38.7 286.1,19.1 286.6,1.5 L289.8,1.5 C289.8,1.5 298.5,21 302.6,29.6 C306.4,20.8 314.2,1.5 314.2,1.5 L317.4,1.5 C317.4,1.5 318,18.3 319.5,38.7 L313.8,38.7 L313.8,38.6 Z" id="Shape"></path>
            </g>
        </g>
    </g>
</svg>